HIERARCHY
ROOT ui
{
	 OFFSET 0 0 0
	 CHANNELS 3 XPosition YPosition Z Position
	 EndSite
	 {
	 OFFSET 0 -1 0
	 }
}
ROOT li
{
	 OFFSET 0 0 0
	 CHANNELS 3 XPosition YPosition Z Position
	 EndSite
	 {
	 OFFSET 0 -1 0
	 }
}
ROOT ul
{
	 OFFSET 0 0 0
	 CHANNELS 3 XPosition YPosition Z Position
	 EndSite
	 {
	 OFFSET 0 -1 0
	 }
}
ROOT ll
{
	 OFFSET 0 0 0
	 CHANNELS 3 XPosition YPosition Z Position
	 EndSite
	 {
	 OFFSET 0 -1 0
	 }
}
ROOT tt
{
	 OFFSET 0 0 0
	 CHANNELS 3 XPosition YPosition Z Position
	 EndSite
	 {
	 OFFSET 0 -1 0
	 }
}
ROOT tb
{
	 OFFSET 0 0 0
	 CHANNELS 3 XPosition YPosition Z Position
	 EndSite
	 {
	 OFFSET 0 -1 0
	 }
}
ROOT td
{
	 OFFSET 0 0 0
	 CHANNELS 3 XPosition YPosition Z Position
	 EndSite
	 {
	 OFFSET 0 -1 0
	 }
}
ROOT v
{
	 OFFSET 0 0 0
	 CHANNELS 3 XPosition YPosition Z Position
	 EndSite
	 {
	 OFFSET 0 -1 0
	 }
}
ROOT bn
{
	 OFFSET 0 0 0
	 CHANNELS 3 XPosition YPosition Z Position
	 EndSite
	 {
	 OFFSET 0 -1 0
	 }
}
MOTION
Frames: 10
Frame Time: 0.002
-0.004415613174438476	0.009682153701782227	0		0.4477412414550781	-2.40689599609375	0		-0.9345558471679688	0.36276019287109373	0		-0.57112744140625	-2.675635009765625	0		1.37339892578125	-0.583697265625	0		2.908841796875	0.29285748291015623	0		4.285703125	0.558575927734375	0		6.00352490234375	0.46247750854492187	0		0.0023511559963226318	5.9831748046875	0		
0.024763010025024415	-0.007303775787353516	0		0.4461460876464844	-2.40944384765625	0		-0.9390836181640625	0.36723822021484376	0		-0.6476702270507813	-2.6741435546875	0		1.361784423828125	-0.5860946655273438	0		2.93341015625	0.30397140502929687	0		4.28990625	0.543988037109375	0		6.003939453125	0.46296337890625	0		0.00270408296585083	5.98359326171875	0		
-0.006687479972839356	0.004591061115264893	0		0.44452020263671876	-2.411963623046875	0		-0.9278360595703125	0.3575235595703125	0		-0.6143529052734376	-2.681163818359375	0		1.3609864501953124	-0.5996182861328125	0		2.8868740234375	0.31010543823242187	0		4.290279296875	0.5434778442382813	0		6.00431298828125	0.46247006225585935	0		0.002037698984146118	5.98405517578125	0		
-0.010379579544067383	0.0011243760585784913	0		0.43569482421875	-2.42635546875	0		-0.9225599365234375	0.35192343139648435	0		-0.6509494018554688	-2.679174072265625	0		1.3613409423828124	-0.6001298828125	0		2.895234130859375	0.31049456787109375	0		4.2737236328125	0.5502279663085937	0		5.99565966796875	0.4621231689453125	0		0.003309225082397461	5.9815185546875	0		
-0.012101848602294922	-0.0023405089378356935	0		0.4670558471679688	-2.425279296875	0		-0.9080623779296875	0.3642269592285156	0		-0.6148948364257812	-2.70017333984375	0		1.3706357421875	-0.6027393188476563	0		2.90470458984375	0.32089431762695314	0		4.29203759765625	0.5495123291015624	0		6.00908642578125	0.4694884948730469	0		0.020726032257080078	5.99078662109375	0		
-0.0026728909015655516	0.007069530010223389	0		0.41958731079101563	-2.409070556640625	0		-0.9118438720703125	0.3588154296875	0		-0.6523349609375	-2.682110107421875	0		1.363831787109375	-0.6100964965820312	0		2.895175537109375	0.33358538818359373	0		4.2914228515625	0.5560856323242187	0		6.005486328125	0.47711285400390624	0		0.0038596758842468263	5.98156201171875	0		
-0.0024097700119018557	0.006636137008666992	0		0.4895037841796875	-2.43547802734375	0		-0.9216929931640625	0.35051895141601563	0		-0.5755858154296875	-2.72061865234375	0		1.35308447265625	-0.6113705444335937	0		2.874369384765625	0.3284575805664062	0		4.28658642578125	0.5487399291992188	0		6.00863525390625	0.4686622619628906	0		0.004098957061767578	5.98112890625	0		
-0.00926654052734375	-6.702719926834107E-4	0		0.46178155517578123	-2.433490478515625	0		-0.9214535522460937	0.35011151123046874	0		-0.5804213256835937	-2.726954833984375	0		1.35027099609375	-0.6157294311523438	0		2.877692626953125	0.33401803588867185	0		4.2868251953125	0.5483468017578125	0		6.00887451171875	0.4682738647460937	0		0.004322925090789795	5.98072412109375	0		
-0.009043512344360351	-0.0010489280223846436	0		0.4899780883789063	-2.436259521484375	0		-0.9112321166992188	0.349591552734375	0		-0.6062609252929687	-2.731970703125	0		1.35846630859375	-0.6182173461914062	0		2.84000244140625	0.34017474365234374	0		4.28704736328125	0.5479755249023438	0		6.013984375	0.45983645629882813	0		0.020673837661743164	5.99012060546875	0		
-0.0017336549758911132	0.005497517108917237	0		0.437296142578125	-2.428874267578125	0		-0.9009088745117187	0.3570951232910156	0		-0.5571760864257812	-2.742010009765625	0		1.3556240234375	-0.62252880859375	0		2.86831005859375	0.34643051147460935	0		4.29235693359375	0.5545540161132813	0		6.01442041015625	0.47548565673828125	0		0.020880794525146483	5.989765625	0		
